<mxfile host="app.diagrams.net" modified="2020-06-30T17:27:59.020Z" agent="5.0 (Windows NT 10.0; Win64; x64) AppleWebKit/537.36 (KHTML, like Gecko) Chrome/83.0.4103.97 Safari/537.36" etag="iTuQyOwDqmeZFXqdqIhU" version="13.3.5" type="github">
  <diagram id="jz2GWTbr_Bam_6cfonU8" name="Page-1">
    <mxGraphModel dx="716" dy="400" grid="1" gridSize="10" guides="1" tooltips="1" connect="1" arrows="1" fold="1" page="1" pageScale="1" pageWidth="850" pageHeight="1100" math="0" shadow="0">
      <root>
        <mxCell id="0" />
        <mxCell id="1" parent="0" />
        <mxCell id="WOxTpeTA80bt1Znz08GQ-1" value="" style="rounded=0;whiteSpace=wrap;html=1;" parent="1" vertex="1">
          <mxGeometry x="60" y="210" width="520" height="240" as="geometry" />
        </mxCell>
        <mxCell id="WOxTpeTA80bt1Znz08GQ-2" value="Alt" style="rounded=0;whiteSpace=wrap;html=1;" parent="1" vertex="1">
          <mxGeometry x="60" y="210" width="50" height="30" as="geometry" />
        </mxCell>
        <mxCell id="WOxTpeTA80bt1Znz08GQ-3" value="User" style="shape=umlActor;verticalLabelPosition=bottom;labelBackgroundColor=#ffffff;verticalAlign=top;html=1;outlineConnect=0;" parent="1" vertex="1">
          <mxGeometry x="90" y="20" width="30" height="60" as="geometry" />
        </mxCell>
        <mxCell id="WOxTpeTA80bt1Znz08GQ-4" value="CURSE database" style="shape=umlActor;verticalLabelPosition=bottom;labelBackgroundColor=#ffffff;verticalAlign=top;html=1;outlineConnect=0;" parent="1" vertex="1">
          <mxGeometry x="530" y="20" width="30" height="60" as="geometry" />
        </mxCell>
        <mxCell id="WOxTpeTA80bt1Znz08GQ-21" value="" style="endArrow=none;dashed=1;html=1;exitX=0.5;exitY=0;exitDx=0;exitDy=0;" parent="1" source="WOxTpeTA80bt1Znz08GQ-20" edge="1">
          <mxGeometry width="50" height="50" relative="1" as="geometry">
            <mxPoint x="340" y="290" as="sourcePoint" />
            <mxPoint x="255" y="100" as="targetPoint" />
          </mxGeometry>
        </mxCell>
        <mxCell id="WOxTpeTA80bt1Znz08GQ-22" value="login window" style="rounded=0;whiteSpace=wrap;html=1;" parent="1" vertex="1">
          <mxGeometry x="212.5" y="40" width="85" height="60" as="geometry" />
        </mxCell>
        <mxCell id="WOxTpeTA80bt1Znz08GQ-24" value="" style="endArrow=classic;html=1;exitX=1.002;exitY=0.455;exitDx=0;exitDy=0;exitPerimeter=0;entryX=0.037;entryY=0.163;entryDx=0;entryDy=0;entryPerimeter=0;" parent="1" source="WOxTpeTA80bt1Znz08GQ-8" edge="1" target="WOxTpeTA80bt1Znz08GQ-20">
          <mxGeometry width="50" height="50" relative="1" as="geometry">
            <mxPoint x="140" y="290" as="sourcePoint" />
            <mxPoint x="250" y="290" as="targetPoint" />
          </mxGeometry>
        </mxCell>
        <mxCell id="WOxTpeTA80bt1Znz08GQ-25" value="login()" style="text;html=1;strokeColor=none;fillColor=none;align=center;verticalAlign=middle;whiteSpace=wrap;rounded=0;" parent="1" vertex="1">
          <mxGeometry x="150" y="260" width="40" height="20" as="geometry" />
        </mxCell>
        <mxCell id="WOxTpeTA80bt1Znz08GQ-28" value="" style="endArrow=classic;html=1;" parent="1" edge="1">
          <mxGeometry width="50" height="50" relative="1" as="geometry">
            <mxPoint x="260" y="290" as="sourcePoint" />
            <mxPoint x="540" y="290" as="targetPoint" />
          </mxGeometry>
        </mxCell>
        <mxCell id="WOxTpeTA80bt1Znz08GQ-31" value="query for credentials" style="text;html=1;strokeColor=none;fillColor=none;align=center;verticalAlign=middle;whiteSpace=wrap;rounded=0;" parent="1" vertex="1">
          <mxGeometry x="330" y="270" width="130" height="20" as="geometry" />
        </mxCell>
        <mxCell id="WOxTpeTA80bt1Znz08GQ-37" value="" style="rounded=0;whiteSpace=wrap;html=1;" parent="1" vertex="1">
          <mxGeometry x="70" y="300" width="190" height="97.5" as="geometry" />
        </mxCell>
        <mxCell id="WOxTpeTA80bt1Znz08GQ-12" value="" style="rounded=0;whiteSpace=wrap;html=1;" parent="1" vertex="1">
          <mxGeometry x="540" y="110" width="10" height="380" as="geometry" />
        </mxCell>
        <mxCell id="WOxTpeTA80bt1Znz08GQ-36" value="return credentials" style="text;html=1;strokeColor=none;fillColor=none;align=center;verticalAlign=middle;whiteSpace=wrap;rounded=0;" parent="1" vertex="1">
          <mxGeometry x="330" y="305" width="120" height="10" as="geometry" />
        </mxCell>
        <mxCell id="WOxTpeTA80bt1Znz08GQ-32" value="" style="endArrow=none;dashed=1;html=1;startArrow=classic;startFill=1;" parent="1" edge="1">
          <mxGeometry width="50" height="50" relative="1" as="geometry">
            <mxPoint x="260" y="320" as="sourcePoint" />
            <mxPoint x="540" y="320" as="targetPoint" />
          </mxGeometry>
        </mxCell>
        <mxCell id="WOxTpeTA80bt1Znz08GQ-20" value="" style="rounded=0;whiteSpace=wrap;html=1;" parent="1" vertex="1">
          <mxGeometry x="250" y="260" width="10" height="140" as="geometry" />
        </mxCell>
        <mxCell id="WOxTpeTA80bt1Znz08GQ-8" value="" style="rounded=0;whiteSpace=wrap;html=1;" parent="1" vertex="1">
          <mxGeometry x="100" y="110" width="10" height="380" as="geometry" />
        </mxCell>
        <mxCell id="WOxTpeTA80bt1Znz08GQ-16" value="[enter credentials]" style="text;html=1;strokeColor=none;fillColor=none;align=center;verticalAlign=middle;whiteSpace=wrap;rounded=0;" parent="1" vertex="1">
          <mxGeometry x="90" y="250" width="40" height="20" as="geometry" />
        </mxCell>
        <mxCell id="WOxTpeTA80bt1Znz08GQ-38" value="Alt" style="rounded=0;whiteSpace=wrap;html=1;" parent="1" vertex="1">
          <mxGeometry x="70" y="300" width="30" height="20" as="geometry" />
        </mxCell>
        <mxCell id="WOxTpeTA80bt1Znz08GQ-39" value="" style="endArrow=none;dashed=1;html=1;exitX=0;exitY=0.5;exitDx=0;exitDy=0;entryX=1;entryY=0.5;entryDx=0;entryDy=0;" parent="1" source="WOxTpeTA80bt1Znz08GQ-37" target="WOxTpeTA80bt1Znz08GQ-37" edge="1">
          <mxGeometry width="50" height="50" relative="1" as="geometry">
            <mxPoint x="310" y="380" as="sourcePoint" />
            <mxPoint x="360" y="330" as="targetPoint" />
          </mxGeometry>
        </mxCell>
        <mxCell id="WOxTpeTA80bt1Znz08GQ-40" value="" style="endArrow=classic;html=1;dashed=1;" parent="1" edge="1">
          <mxGeometry width="50" height="50" relative="1" as="geometry">
            <mxPoint x="250" y="340" as="sourcePoint" />
            <mxPoint x="110" y="340.14286876860115" as="targetPoint" />
          </mxGeometry>
        </mxCell>
        <mxCell id="WOxTpeTA80bt1Znz08GQ-42" value="success" style="text;html=1;strokeColor=none;fillColor=none;align=center;verticalAlign=middle;whiteSpace=wrap;rounded=0;" parent="1" vertex="1">
          <mxGeometry x="160" y="315" width="80" height="20" as="geometry" />
        </mxCell>
        <mxCell id="WOxTpeTA80bt1Znz08GQ-46" value="" style="endArrow=classic;html=1;dashed=1;" parent="1" edge="1">
          <mxGeometry width="50" height="50" relative="1" as="geometry">
            <mxPoint x="250" y="390" as="sourcePoint" />
            <mxPoint x="110" y="390.14286876860115" as="targetPoint" />
          </mxGeometry>
        </mxCell>
        <mxCell id="WOxTpeTA80bt1Znz08GQ-48" value="incorrect credentials error" style="text;html=1;strokeColor=none;fillColor=none;align=center;verticalAlign=middle;whiteSpace=wrap;rounded=0;" parent="1" vertex="1">
          <mxGeometry x="140" y="365" width="100" height="20" as="geometry" />
        </mxCell>
        <mxCell id="WOxTpeTA80bt1Znz08GQ-51" value="[authorization]" style="text;html=1;strokeColor=none;fillColor=none;align=center;verticalAlign=middle;whiteSpace=wrap;rounded=0;" parent="1" vertex="1">
          <mxGeometry x="100" y="305" width="40" height="20" as="geometry" />
        </mxCell>
        <mxCell id="WOxTpeTA80bt1Znz08GQ-52" value="[no authorization]" style="text;html=1;strokeColor=none;fillColor=none;align=center;verticalAlign=middle;whiteSpace=wrap;rounded=0;" parent="1" vertex="1">
          <mxGeometry x="100" y="350" width="40" height="20" as="geometry" />
        </mxCell>
        <mxCell id="WOxTpeTA80bt1Znz08GQ-54" value="" style="endArrow=classic;html=1;exitX=1.028;exitY=0.968;exitDx=0;exitDy=0;exitPerimeter=0;" parent="1" edge="1" source="WOxTpeTA80bt1Znz08GQ-8">
          <mxGeometry width="50" height="50" relative="1" as="geometry">
            <mxPoint x="110" y="477" as="sourcePoint" />
            <mxPoint x="538" y="477" as="targetPoint" />
          </mxGeometry>
        </mxCell>
        <mxCell id="WOxTpeTA80bt1Znz08GQ-55" value="logout()" style="text;html=1;strokeColor=none;fillColor=none;align=center;verticalAlign=middle;whiteSpace=wrap;rounded=0;" parent="1" vertex="1">
          <mxGeometry x="290" y="460" width="40" height="20" as="geometry" />
        </mxCell>
      </root>
    </mxGraphModel>
  </diagram>
</mxfile>
